<svg width="182" height="35" viewBox="0 0 182 35" fill="none" xmlns="http://www.w3.org/2000/svg">
<g clip-path="url(#clip0)">
<path d="M9.23438 17.2247C11.9043 17.2247 13.4325 15.8035 13.4325 13.3351C13.4325 11.043 12.5848 9.52034 8.45012 9.52034H4.5V17.2247H9.23438Z" fill="#F29104"/>
<path d="M85.9764 12.416L88.8136 20.8522H83.1392L85.9764 12.416ZM83.0008 3.81938L71.681 33.6803H78.8316L81.2997 26.3447H90.6531L93.1212 33.6803H100.324L88.975 3.81938H83.0008Z" fill="#009B3A"/>
<path d="M167.447 12.416L170.284 20.8522H164.61L167.447 12.416ZM164.472 3.81938L153.152 33.6803H160.302L162.77 26.3447H172.13L174.615 33.6803H181.817L170.446 3.81938H164.472Z" fill="#009B3A"/>
<path d="M143.913 15.9479C141.088 14.8793 138.649 13.9336 138.649 12.2079C138.649 10.6051 140.321 9.40293 142.627 9.40293C146.18 9.40293 148.971 11.7164 149.005 11.7377L149.645 12.272L152.719 6.92922L152.385 6.6033C152.246 6.46973 148.977 3.34419 142.674 3.34419C136.371 3.34419 131.642 7.18033 131.642 12.272C131.642 17.6629 136.717 19.6932 140.799 21.3174C143.683 22.4821 146.22 23.4866 146.22 25.2924C146.22 27.3868 144.167 28.1348 142.408 28.1348C138.372 28.1348 135.212 25.3138 135.177 25.2871L134.6 24.7849L130.789 29.6735L131.152 30.0475C132.623 31.3892 134.37 32.4448 136.288 33.1522C138.206 33.8596 140.258 34.2046 142.322 34.1668C148.711 34.1668 153.175 30.4643 153.175 25.1589C153.175 19.5008 148.042 17.5293 143.913 15.9479Z" fill="#009B3A"/>
<path d="M121.504 3.81938V22.033L109.233 3.81938H102.25V33.6803H109.21V15.1622L119.97 31.0784L120.339 31.6127C120.98 32.3713 122.514 33.6696 125.529 33.675H128.413V3.81938H121.504Z" fill="#009B3A"/>
<path d="M56.4802 17.2245H51.7458V9.53618H55.696C59.8306 9.53618 60.6783 11.0589 60.6783 13.3456C60.6783 15.8193 59.1502 17.2405 56.4802 17.2405V17.2245ZM65.2801 33.6803H70.3662L63.4463 22.0704C63.2099 21.6804 62.9965 21.3758 62.8235 21.1408C65.8164 19.6929 67.7078 16.6047 67.7078 13.0678C67.7078 9.17822 65.701 6.16487 62.2641 4.67957C61.1536 4.23758 59.9738 3.9634 58.7696 3.86747C58.585 3.83541 57.5528 3.81938 57.5528 3.81938H44.7913V33.6803H51.7458V22.9947H56.3995C56.3995 22.9947 59.5596 28.5031 60.4823 30.1006C61.1339 31.228 62.9042 33.675 65.257 33.675" fill="#009B3A"/>
<path d="M11.7025 3.81938V3.86747C12.852 3.97771 13.9763 4.25163 15.0356 4.67957C18.4955 6.16487 20.4793 9.17822 20.4793 13.0678C20.4793 16.6101 18.5878 19.6929 15.5892 21.1408C15.8157 21.4405 16.0255 21.7508 16.2177 22.0704L23.1377 33.6803H32.6526C33.188 33.6803 33.7181 33.5826 34.2128 33.3928C34.7074 33.203 35.1568 32.9247 35.5354 32.574C35.914 32.2232 36.2143 31.8068 36.4192 31.3485C36.6241 30.8902 36.7295 30.399 36.7295 29.903V3.81938H11.7025Z" fill="#009B3A"/>
<path d="M17.6017 33.6429C15.4681 33.3704 13.865 31.1638 13.2595 30.106C12.3368 28.5031 9.17672 23 9.17672 23H4.5V33.6856H17.6017V33.6429Z" fill="#009B3A"/>
</g>
<defs>
<clipPath id="clip0">
<rect x="4.5" y="3.33331" width="177.3" height="30.8333" fill="white"/>
</clipPath>
</defs>
</svg>
