<svg width="124" height="35" viewBox="0 0 124 35" fill="none" xmlns="http://www.w3.org/2000/svg">
<g clip-path="url(#clip0)">
<path d="M48.4773 17.5098C51.1375 18.2145 52.3141 20.1001 52.5935 22.6274C52.8349 24.6105 52.8005 26.6176 52.4912 28.5912C52.0189 31.4649 50.2875 33.1931 47.5329 34.008C45.3171 34.6208 43.0316 34.945 40.7329 34.9724C37.5613 35.1013 34.3846 34.9299 31.2453 34.4607H31.1902C29.6161 34.2166 29.5413 34.1418 29.5413 32.5632C29.5413 31.6145 29.5413 30.6619 29.5413 29.7132C29.5413 29.0046 29.6594 28.8786 30.3677 28.8786C33.3506 28.8786 36.3334 28.8786 39.3202 28.8786C40.593 28.8926 41.864 28.7779 43.1137 28.5361C44.6877 28.2133 45.3567 27.4772 45.6046 25.9104C45.7601 24.8538 45.7053 23.7769 45.4433 22.7415C45.3443 22.2245 45.0927 21.749 44.721 21.3764C44.3492 21.0038 43.8743 20.7512 43.3577 20.6512C42.3954 20.4269 41.41 20.3172 40.422 20.3245H32.5517C31.7923 20.3245 31.6624 20.1946 31.6585 19.4269C31.6585 18.1515 31.6585 16.8773 31.6585 15.6045C31.6585 14.8802 31.8119 14.7345 32.5321 14.7345H40.6896C41.5647 14.7207 42.4356 14.6111 43.2868 14.4078C43.8738 14.306 44.412 14.0166 44.8207 13.5829C45.2294 13.1493 45.4865 12.5948 45.5535 12.0026C45.7429 11.0293 45.7655 10.031 45.6204 9.05014C45.3764 7.52275 44.6602 6.79055 43.1294 6.49531C41.7004 6.2464 40.2512 6.13174 38.8008 6.15283C35.9871 6.15283 33.1735 6.15283 30.3599 6.15283C29.6319 6.15283 29.5295 6.05047 29.5295 5.33402C29.5295 4.23178 29.5295 3.12954 29.5295 2.0273C29.5295 1.1652 29.805 0.846335 30.6629 0.677063C32.5386 0.351301 34.4346 0.15532 36.3374 0.0905144C39.0127 -0.0520279 41.6952 0.0282924 44.3572 0.330645C45.7725 0.496983 47.1626 0.834041 48.497 1.33447C49.4757 1.66614 50.349 2.25149 51.0278 3.03086C51.7067 3.81023 52.1668 4.75573 52.3613 5.77098C52.8718 8.19409 52.9012 10.694 52.4479 13.1284C52.0544 15.2581 50.8738 16.754 48.7331 17.3957C48.6455 17.4283 48.5601 17.4664 48.4773 17.5098Z" fill="#F29104"/>
<path d="M103.994 24.9381C104.388 25.3318 104.781 25.7451 105.175 26.1388C105.422 26.4053 105.721 26.6179 106.054 26.7634C106.387 26.9088 106.746 26.9838 107.109 26.9838C107.472 26.9838 107.832 26.9088 108.164 26.7634C108.497 26.6179 108.796 26.4053 109.043 26.1388C109.748 25.4578 110.432 24.7531 111.188 24.0957C110.688 27.2804 110.381 30.5477 107.571 32.7561C106.049 33.9371 104.227 34.4331 102.35 34.7244C99.2815 35.1809 96.1573 35.0983 93.1177 34.4804C89.0763 33.6458 86.7939 31.1343 85.9636 27.1662C85.4625 24.5145 85.2057 21.8225 85.1962 19.1238C85.0865 16.0232 85.23 12.9187 85.6251 9.84141C85.8332 8.20319 86.3008 6.60858 87.0103 5.11753C87.5264 3.96547 88.3104 2.95352 89.2967 2.16604C90.2831 1.37856 91.4434 0.838359 92.6809 0.590478C96.3119 -0.165562 100.056 -0.196332 103.699 0.499937C107.146 1.12979 109.209 3.31852 110.35 6.52682C110.637 7.39184 110.865 8.27574 111.03 9.17219C111.071 9.32557 111.068 9.48738 111.022 9.63913C110.975 9.79088 110.887 9.92645 110.767 10.0304C109.647 11.1169 108.543 12.2191 107.457 13.3371C107.194 13.6087 107.064 13.6638 106.761 13.3371C105.938 12.4671 105.081 11.6325 104.227 10.7901C104.05 10.6192 103.925 10.4024 103.865 10.1642C103.184 7.58575 101.85 6.43234 99.1975 6.16072C98.2121 6.06001 97.2166 6.136 96.2579 6.3851C94.3809 6.87323 93.3774 8.17624 92.913 9.97919C92.4497 12.0195 92.2239 14.1067 92.2401 16.199C92.189 18.99 92.2086 21.7849 92.7871 24.5366C93.3813 27.3552 94.8019 28.6031 97.6706 28.8196C98.5943 28.8932 99.5238 28.8215 100.425 28.607C101.152 28.4534 101.826 28.1109 102.379 27.614C102.931 27.1171 103.343 26.4834 103.573 25.7766C103.668 25.5089 103.754 25.2412 103.849 24.9696C103.888 24.9775 103.928 24.9736 103.994 24.9381Z" fill="#F29104"/>
<path d="M97.3597 15.3093C97.3571 15.1747 97.3851 15.0413 97.4417 14.9192C97.4983 14.7971 97.5819 14.6895 97.6863 14.6046C98.7685 13.5339 99.8428 12.4631 100.933 11.4003C101.358 10.9869 101.74 11.0066 102.212 11.4908C103.719 12.9946 105.23 14.4905 106.718 16.0139C107.032 16.3367 107.198 16.3328 107.505 16.0139C111.088 12.4238 114.676 8.83232 118.267 5.23955C118.948 4.55852 119.219 4.56246 119.916 5.23955C120.896 6.21975 121.884 7.20783 122.86 8.18016C123.387 8.71554 123.399 9.06195 122.86 9.58552C117.846 14.6296 112.826 19.6631 107.8 24.6862C107.28 25.2019 106.965 25.194 106.45 24.6862L97.7414 15.9706C97.5565 15.7817 97.34 15.6085 97.3597 15.3093Z" fill="#F29104"/>
<path d="M26.1727 33.6143C23.9087 30.0111 21.6434 26.417 19.3767 22.8321C18.8022 21.9228 18.8022 21.9188 19.8056 21.6511L20.0811 21.5763C22.4422 20.8559 24.2445 19.49 24.8899 17.0178C25.8888 13.3361 25.8547 9.45036 24.7915 5.78677C24.095 3.38941 22.4776 1.85021 20.1204 1.02747C18.8584 0.613646 17.5545 0.34037 16.2325 0.212598C13.7899 0.0184502 11.3376 -0.0262474 8.88952 0.0787548C6.22935 0.125994 3.57312 0.275583 0.924761 0.499967C0 0.578698 0 0.618064 0 1.55103V33.7324C0 34.7166 0.0590273 34.7756 1.01921 34.7756H6.03653C6.94948 34.7756 7.02032 34.7048 7.02032 33.8151C7.02032 30.1462 7.02032 26.4734 7.02032 22.7927C7.02032 22.3991 7.09508 22.2652 7.51221 22.277C8.51568 22.3085 9.52701 22.3085 10.5344 22.277C10.7089 22.2592 10.8847 22.2952 11.0381 22.3804C11.1915 22.4656 11.3151 22.5957 11.3923 22.7534C13.6629 26.375 15.9649 29.9809 18.2473 33.5947C18.4652 33.9737 18.784 34.2848 19.1682 34.4934C19.5525 34.7019 19.987 34.7996 20.4235 34.7756C22.1156 34.752 23.8077 34.7756 25.4998 34.7756C25.8343 34.7756 26.2081 34.8347 26.4246 34.4804C26.641 34.1261 26.3341 33.8545 26.1727 33.6143ZM18.2158 14.0851C17.9246 15.4589 17.1297 16.3013 15.7406 16.5336C15.3668 16.6005 14.9969 16.6911 14.6191 16.7383C13.2395 16.8715 11.853 16.9201 10.4675 16.8839C9.47979 16.8839 8.49993 16.8839 7.50828 16.8839C7.16198 16.8839 7.01245 16.8367 7.01638 16.4312C7.03606 13.1442 7.01638 9.85718 7.01638 6.58983C7.01638 6.32608 7.01638 6.12925 7.38235 6.14106C9.52701 6.19618 11.6717 6.05446 13.8163 6.24735C14.2098 6.28672 14.6466 6.33002 15.0559 6.40875C17.1573 6.80241 18.023 7.71963 18.326 9.84144C18.5433 11.2512 18.506 12.6885 18.2158 14.0851V14.0851Z" fill="#009B3A"/>
<path d="M81.8238 21.474C81.801 20.5138 81.589 19.5675 81.2001 18.6893C80.8111 17.8112 80.2528 17.0184 79.5571 16.3565C77.7588 14.6795 75.5157 14.0851 73.1625 13.8213C71.1499 13.5785 69.1135 13.613 67.1102 13.9237C67.244 13.6481 67.3346 13.4592 67.429 13.2741C69.4071 9.2982 71.3891 5.32227 73.375 1.34634C73.7685 0.53541 73.6544 0.330709 72.7651 0.330709C70.9037 0.330709 69.0385 0.330709 67.1771 0.330709C66.9416 0.310425 66.7058 0.366445 66.5046 0.490494C66.3034 0.614544 66.1473 0.800047 66.0596 1.01961C63.2499 6.58066 60.4297 12.1457 57.599 17.7146C57.1675 18.5623 56.8815 19.4765 56.7529 20.419C56.5041 22.6098 56.4751 24.8201 56.6663 27.0167C56.8788 30.2407 58.4293 32.5672 61.5066 33.7758C63.5262 34.5129 65.6535 34.9119 67.8028 34.9567C70.518 35.1446 73.2458 34.8947 75.8817 34.2167C79.325 33.2601 81.4145 31.1068 81.7844 27.4615C81.9532 25.4697 81.9663 23.4678 81.8238 21.474V21.474ZM74.6579 26.1979C74.2919 27.7449 73.2688 28.5244 71.3563 28.7409C70.7468 28.8323 70.1308 28.8731 69.5146 28.8629C68.4234 28.8828 67.3336 28.7731 66.2681 28.5362C65.6382 28.415 65.0621 28.0997 64.6203 27.6345C64.1786 27.1693 63.8934 26.5775 63.8047 25.942C63.5859 24.7831 63.5859 23.5934 63.8047 22.4345C63.8836 21.7675 64.1787 21.1447 64.6449 20.6613C65.1111 20.1779 65.7227 19.8605 66.3862 19.7577C68.2255 19.3747 70.1213 19.3493 71.9702 19.6829C72.682 19.7692 73.343 20.096 73.8439 20.6092C74.3448 21.1225 74.6556 21.7914 74.7248 22.5054C74.9489 23.7284 74.9261 24.9838 74.6579 26.1979V26.1979Z" fill="#F29104"/>
</g>
<defs>
<clipPath id="clip0">
<rect width="123.261" height="35" fill="white"/>
</clipPath>
</defs>
</svg>
